<?xml version="1.0" standalone="no"?>
<!DOCTYPE svg PUBLIC "-//W3C//DTD SVG 1.1//EN" "http://www.w3.org/Graphics/SVG/1.1/DTD/svg11.dtd" >
<svg xmlns="http://www.w3.org/2000/svg">
<metadata>
This is a custom SVG webfont generated by Font Squirrel.
Designer    : Tobias FrereJones
Foundry     : The Font Bureau Inc
Foundry URL : httpwwwfontbureaucom
</metadata>
<defs>
<font id="webfontTd8dIUXl" horiz-adv-x="504" >
<font-face units-per-em="2048" ascent="1516" descent="-532" />
<missing-glyph horiz-adv-x="508" />
<glyph unicode=" "  horiz-adv-x="508" />
<glyph unicode="&#x09;" horiz-adv-x="508" />
<glyph unicode="&#xa0;" horiz-adv-x="508" />
<glyph unicode="!" horiz-adv-x="547" d="M387 109q0 -56 -35 -97q-34 -39 -82 -39q-104 0 -104 117q0 54 36 92q37 37 87 37q98 0 98 -110zM377 1188q-47 -305 -47 -653q0 -63 -6 -82q-10 -36 -52 -58q-12 -6 -20 -6q-14 0 -14 31q0 446 -54 754q-6 34 -6 55q0 67 115 94q27 6 43 6q48 0 48 -65q0 -31 -7 -76z " />
<glyph unicode="&#x22;" horiz-adv-x="780" d="M322 1255q0 -177 -66 -397q-8 -24 -43 -31q-21 -4 -27.5 4.5t-5.5 36.5q1 12 1 39q0 172 -42 340q-5 22 -5 33q0 41 95 53q25 3 39 3q54 0 54 -81zM686 1255q0 -165 -65 -397q-6 -23 -43 -31q-21 -4 -28 5t-5 36q13 181 -39 379q-5 22 -5 33q0 42 93 53q26 3 39 3 q37 0 47 -24q6 -14 6 -57z" />
<glyph unicode="#" horiz-adv-x="1073" d="M686 510q-137 18 -285 35l-32 -219q62 -9 284 -37q12 69 33 221zM993 563q-9 -42 -24.5 -61t-38.5 -17q-120 13 -170 17q-11 -66 -33 -221l215 -25q19 -2 8 -45q-10 -42 -26 -62t-39 -18q-29 2 -180 19l-37 -224q-3 -13 -25 -6q-45 25 -39 64l27 176q-67 6 -285 30 l-43 -264q-1 -14 -27 -6q-42 25 -36 64l32 215l-178 18q-27 3 -14 64q8 38 24 56t37 15q51 -7 152 -18l33 219q-58 5 -189 18q-25 3 -12 64q17 78 61 72l162 -21l27 178q6 24 35 15q38 -20 32 -62q-3 -23 -20 -141q73 -8 285 -35l32 223q6 24 35 15q42 -20 35 -62 q-12 -79 -31 -184q111 -11 209 -23q15 -1 6 -47z" />
<glyph unicode="$" horiz-adv-x="834" d="M612 166q0 51 -34 82q-34 33 -129 69l-17 -270q180 6 180 119zM401 754q-161 -3 -161 -115q0 -73 147 -131q7 87 14 246zM748 215q0 -105 -84.5 -166.5t-235.5 -64.5l-12 -197q-2 -16 -18 -10q-55 18 -52 67q4 73 10 142q-135 8 -208 52q-66 40 -66 99q0 82 65 82 q59 0 89 -74q32 -81 124 -92q13 192 17 291q-156 56 -208 106q-54 51 -54 140q0 106 82 167q81 60 209 64q1 35 8 150q2 27 32 14q44 -18 41 -61l-6 -105q110 -8 179 -45q73 -40 73 -98q0 -78 -65 -78q-59 0 -93 76q-26 59 -98 74l-18 -269q163 -57 224 -110q65 -56 65 -154 z" />
<glyph unicode="%" horiz-adv-x="1638" d="M498 543q0 225 -127 225q-135 0 -135 -217q0 -232 135 -232q127 0 127 224zM1405 256q0 225 -127 225q-135 0 -135 -217q0 -231 135 -231q127 0 127 223zM653 555q0 -132 -78 -216q-79 -87 -213 -87q-121 0 -202 81q-80 81 -80 204q0 135 87 219q83 80 206 80 q124 0 202 -79q78 -78 78 -202zM1137 815l-572 -895q-10 -21 -46 6q-35 26 -25 41l571 893q14 20 45 -4q36 -27 27 -41zM1561 268q0 -132 -78 -216q-81 -87 -213 -87q-121 0 -202 81q-81 82 -81 204q0 135 87 219q83 80 206 80q124 0 202 -78q79 -78 79 -203z" />
<glyph unicode="&#x26;" horiz-adv-x="1622" d="M983 287q-79 129 -231 286q-26 26 -203 154q-262 -118 -262 -344q0 -143 95 -226q89 -77 234 -77q205 0 367 207zM786 1087q0 183 -147 183q-158 0 -158 -176q0 -124 156 -250q149 71 149 243zM1544 104q11 -28 -26 -51q-104 -65 -203 -65q-105 0 -164 41 q-52 37 -102 139q-18 36 -25 47q-191 -227 -453 -227q-213 0 -335 91q-127 94 -127 259q0 288 368 446q-149 128 -149 275q0 129 93 209q89 75 226 75q125 0 206 -63q85 -67 85 -176q0 -206 -229 -311q61 -43 192 -148q100 -100 178 -207q72 131 133 320q11 33 11 57 q0 58 -76 88q-35 14 -35 37q0 28 51 16q44 -9 139 -13q90 -4 128 -1q55 4 55 -24q0 -23 -80 -35q-43 -8 -59 -22q-18 -16 -31 -60q-83 -262 -187 -436q13 -21 46 -82q58 -113 99 -153q47 -48 111 -48q52 0 129 39q20 11 31 -17z" />
<glyph unicode="'" horiz-adv-x="416" d="M322 1255q0 -177 -66 -397q-8 -24 -43 -31q-21 -4 -27.5 4.5t-5.5 36.5q1 12 1 39q0 172 -42 340q-5 22 -5 33q0 41 95 53q25 3 39 3q54 0 54 -81z" />
<glyph unicode="(" horiz-adv-x="793" d="M735 -342q-9 -17 -24 -17q-14 0 -37 17q-242 178 -382 405q-153 247 -153 510t153 511q140 227 382 405q23 17 37 17q15 0 24 -17q20 -35 -2 -53q-215 -194 -310 -374q-112 -211 -112 -489q0 -277 112 -488q95 -180 310 -374q22 -18 2 -53z" />
<glyph unicode=")" horiz-adv-x="793" d="M653 573q0 -262 -152 -510q-139 -225 -382 -405q-25 -17 -38 -17q-15 0 -24 17q-19 34 2 53q216 195 311 374q111 211 111 488t-111 489q-95 179 -311 374q-21 19 -2 53q9 17 24 17q13 0 38 -17q243 -180 382 -405q152 -248 152 -511z" />
<glyph unicode="*" horiz-adv-x="1044" d="M930 1053q13 -39 13 -66q0 -44 -42 -47q-300 -27 -326 -53q-3 -5 -3 -10q0 -54 239 -191q29 -17 29 -33q0 -26 -68 -73q-52 -37 -81 -37q-24 0 -36 28q-116 282 -149 289q-11 2 -24 -13.5t-29 -50.5q-36 -82 -64 -218q-7 -40 -30 -40t-84 44q-59 44 -59 75q0 17 20 31 q221 201 221 230q-4 31 -138 31q-73 0 -167 -7q-22 -1 -32.5 10t-10.5 36q0 26 12 65q25 82 64 82q13 0 26 -9q263 -163 289 -149q10 4 10 28q0 66 -82 273q-9 22 -9 33q0 32 103 32q100 0 100 -52q0 -8 -1 -13q-65 -276 -43 -317q4 -7 15 -7q80 0 247 170q12 13 27 13 q36 0 63 -84z" />
<glyph unicode="+" horiz-adv-x="1083" d="M983 418q0 -21 -18 -38.5t-41 -17.5h-320v-352q0 -49 -80 -49q-45 0 -45 21v380h-358q-19 0 -19 27q0 45 58 45h319v357q0 49 96 49q29 0 29 -15v-391h361q18 0 18 -16z" />
<glyph unicode="," d="M395 49q0 -261 -219 -391q-20 -12 -29 -12q-14 0 -26 32q-4 9 -4 18q0 17 57 56q98 68 98 154q0 44 -57 80q-80 50 -80 123q0 49 33.5 81.5t87.5 32.5q65 0 102 -47.5t37 -126.5z" />
<glyph unicode="-" horiz-adv-x="690" d="M594 633q0 -100 -59 -109q-198 -32 -347 -75q-48 -14 -64 -14q-28 0 -28 38q0 112 50 118q84 13 382 68q37 7 46 6q20 -5 20 -32z" />
<glyph unicode="." d="M373 119q0 -61 -38 -105q-37 -43 -91 -43q-115 0 -115 131q0 59 40 99q41 41 93 41q111 0 111 -123z" />
<glyph unicode="/" horiz-adv-x="1008" d="M973 1438l-938 -1778q-12 -23 -55 2q-35 20 -35 33q0 5 4 12l938 1780q11 21 55 -2q41 -22 31 -47z" />
<glyph unicode="0" horiz-adv-x="977" d="M721 399q0 152 -62 241t-167 89q-116 0 -179 -90q-59 -85 -59 -227q0 -160 63 -247t175 -87q108 0 168.5 83t60.5 238zM899 418q0 -189 -112 -307q-115 -123 -304 -123q-175 0 -290 114q-115 115 -115 289q0 195 124 315q119 113 294 113q178 0 290 -112 q113 -111 113 -289z" />
<glyph unicode="1" horiz-adv-x="629" d="M541 31q-4 -28 -23 -32q-9 -2 -47 1q-129 10 -291 -4q-36 -3 -43 0q-12 4 -12 35q0 25 49 41q66 21 66 110v404q0 62 -11 87q-16 37 -71 50l-43 11q-19 10 -15 36q6 27 24 32q7 2 46 -1q127 -10 291 4q39 3 48 -2.5t9 -32.5q0 -24 -51 -41q-78 -24 -78 -111v-403 q0 -64 19 -92q19 -31 77 -45q36 -8 42 -12q17 -11 14 -35z" />
<glyph unicode="2" horiz-adv-x="838" d="M805 135q-49 -77 -88 -223q-7 -27 -41 -18q-29 6 -19 48q11 42 -49 50q-107 14 -499 14q-12 0 -17 17t6 26q249 203 341 322q79 100 79 196q0 135 -141 135q-96 0 -225 -90q-26 -17 -48 11q-12 15 -12 27q0 16 21 36q136 133 313 133q279 0 279 -211q0 -97 -97 -210 q-70 -84 -256 -238q-15 -14 -15 -21q0 -10 30 -10q177 0 241 2q85 4 148 33q20 9 41 2q26 -9 8 -31z" />
<glyph unicode="3" horiz-adv-x="770" d="M666 117q0 -368 -574 -461q-36 -6 -41 29q-3 25 9 34q10 8 46 17q189 43 281 115q102 81 102 217q0 90 -64 142q-59 48 -146 48q-51 0 -68 -4q-28 -6 -39 29q-10 30 25 47q286 132 286 274q0 125 -133 125q-108 0 -205 -55q-30 -16 -55 12q-10 11 -10 20q0 14 29 35 q128 97 284 97q271 0 271 -201q0 -167 -265 -287q120 5 193 -58q74 -63 74 -175z" />
<glyph unicode="4" horiz-adv-x="979" d="M227 127l357 -8v471q-88 -136 -357 -463zM928 53q-14 -57 -49 -55l-88 5l-52 3q0 -158 4 -289q0 -22 -33 -35l-53 -14q-44 -12 -61 -9q-16 3 -16 22q0 6 1 69t3 114q4 103 4 144q-5 1 -520 19q-17 0 -20 24t11 41q502 575 588 742q6 11 27 11q18 0 63 -14q27 -7 13 -59 q-9 -57 -9 -143v-516q51 0 93 8q33 8 52 32q20 26 40 21q17 -5 17 -31q0 -27 -15 -90z" />
<glyph unicode="5" horiz-adv-x="795" d="M737 842q-8 -16 -32 -99q-20 -68 -62 -68q-15 0 -41 9q-81 31 -264 31q-29 0 -35 -27q-17 -94 -37 -184q212 -70 312 -156q114 -98 114 -233q0 -204 -172 -328q-120 -87 -356 -152q-26 -8 -37 29q-12 38 25 51q354 121 354 357q0 130 -91 220q-89 90 -298 169 q-20 8 -17 28q21 145 35 267q4 41 66 43q123 1 311 10q114 6 137 31q33 34 70 34q32 0 18 -32z" />
<glyph unicode="6" horiz-adv-x="985" d="M729 377q0 136 -59 222q-63 91 -172 91q-110 0 -174 -82t-64 -223q0 -143 64 -228t174 -85t170.5 81.5t60.5 223.5zM907 395q0 -183 -117 -298q-115 -115 -296 -115q-180 0 -290 119q-116 128 -116 352q0 301 200 531q179 206 464 298q28 9 36 -14q13 -36 -32 -60 q-389 -203 -461 -524q91 94 254 94q155 0 256 -104q102 -106 102 -279z" />
<glyph unicode="7" horiz-adv-x="928" d="M858 756q-48 -60 -209 -441q-143 -336 -254 -628q-5 -13 -97 -32q-87 -17 -110 -17q-27 0 -8 28q248 360 502 989q10 27 -8 27q-56 0 -245 -15q-207 -15 -286 -28q-41 -6 -41 23q0 21 39 96l39 76q12 24 29 24q30 0 45 -22q23 -26 92 -29q20 -1 485 -8q22 0 30 -15 q8 -14 -3 -28z" />
<glyph unicode="8" horiz-adv-x="979" d="M711 305q0 99 -54 167q-60 76 -200 136q-193 -94 -193 -278q0 -120 64 -185q65 -65 168 -65q88 0 146 51q69 61 69 174zM686 958q0 85 -52 140t-138 55q-85 0 -140 -52t-55 -126q0 -161 219 -250q166 76 166 233zM874 334q0 -160 -120 -258q-109 -88 -269 -88 q-166 0 -269 82q-112 88 -112 241q0 208 252 340q-198 107 -198 295q0 133 107 219q99 80 235 80q140 0 229 -71q92 -75 92 -201q0 -185 -200 -293q253 -123 253 -346z" />
<glyph unicode="9" horiz-adv-x="954" d="M694 455q0 274 -221 274q-99 0 -156 -73.5t-57 -200.5q0 -301 207 -301q103 0 165 80q62 82 62 221zM856 408q0 -271 -198 -496q-176 -200 -439 -295q-6 -2 -13.5 7.5t-15.5 31.5q-5 23 62 59q139 75 241 183q109 113 148 231q-77 -68 -225 -68q-137 0 -230 90 q-102 99 -102 267q0 180 117 295q112 110 272 110q169 0 272 -105q111 -112 111 -310z" />
<glyph unicode=":" d="M373 119q0 -61 -38 -105q-37 -43 -91 -43q-115 0 -115 131q0 59 40 99q41 41 93 41q111 0 111 -123zM383 664q0 -61 -38 -105q-37 -43 -89 -43q-117 0 -117 129q0 57 41 100q39 39 90 39q113 0 113 -120z" />
<glyph unicode=";" d="M395 49q0 -261 -219 -391q-20 -12 -29 -12q-14 0 -26 32q-4 9 -4 18q0 17 57 56q98 68 98 154q0 44 -57 80q-80 50 -80 123q0 49 33.5 81.5t87.5 32.5q65 0 102 -47.5t37 -126.5zM383 664q0 -61 -38 -105q-37 -43 -89 -43q-117 0 -117 129q0 57 41 100q39 39 90 39 q113 0 113 -120z" />
<glyph unicode="&#x3c;" horiz-adv-x="803" d="M696 -12q-13 -19 -47 4l-518 356q-28 19 -28 33t28 33l512 352q39 27 51 10q7 -10 7 -17q0 -12 -33 -42l-375 -336l381 -342q35 -32 22 -51z" />
<glyph unicode="=" horiz-adv-x="1083" d="M895 248q0 -27 -19 -50q-18 -24 -42 -24h-625q-19 0 -19 37q0 57 58 57h629q18 0 18 -20zM895 602q0 -27 -19 -50q-18 -24 -42 -24h-625q-19 0 -19 35q0 58 58 58h629q18 0 18 -19z" />
<glyph unicode="&#x3e;" horiz-adv-x="803" d="M672 348l-512 -352q-40 -27 -51 -10q-7 10 -7 17q0 12 33 42l375 336l-381 342q-35 32 -23 51q14 20 48 -4l518 -356q27 -20 27 -33t-27 -33z" />
<glyph unicode="?" horiz-adv-x="795" d="M381 109q0 -56 -35 -97q-34 -39 -82 -39q-104 0 -104 117q0 54 36 91q36 38 85 38q100 0 100 -110zM731 928q0 -150 -91 -220q-65 -50 -265 -106q-37 -10 -45 -51q-3 -15 -23 -109q-8 -32 -47 -47q-12 -4 -21 -4q-18 1 -18 29q0 187 -10 268q-8 68 49 68q224 0 300 43 q65 36 65 129q0 126 -74 206q-70 76 -178 76q-57 0 -111 -73q-30 -41 -72 -41q-38 0 -63 39.5t-25 103.5q0 40 53 69q56 31 148 31q181 0 306 -125q122 -122 122 -286z" />
<glyph unicode="@" horiz-adv-x="2007" d="M1217 709q0 122 -185 122q-106 0 -178 -120q-78 -131 -78 -342q0 -187 127 -187q104 0 212 198q102 186 102 329zM1876 610q0 -266 -129 -417q-115 -136 -289 -136q-124 0 -197 65q-74 65 -77 185q0 20 -19 20q-12 0 -20 -14q-160 -256 -316 -256q-97 0 -152.5 71.5 t-55.5 199.5q0 244 151 420q158 182 307 182q93 0 168 -27q65 -23 84 0q47 44 57 44q7 0 17 -7q20 -9 -6 -86q-39 -120 -63 -263q-23 -132 -23 -212q0 -236 190 -236q114 0 195 108q94 124 94 337q0 348 -196 523q-187 169 -541 169q-333 0 -552 -234q-218 -235 -218 -589 q0 -364 212 -581q213 -216 578 -216q269 0 580 168q13 7 34 -28q21 -34 21 -56q0 -7 -4 -8q-340 -137 -649 -137q-429 0 -676 217q-254 224 -254 624q0 387 272 645q271 258 672 258q367 0 581 -184q224 -194 224 -549z" />
<glyph unicode="A" horiz-adv-x="1567" d="M958 547l-206 465q-8 17 -18 17q-9 0 -17 -17l-191 -461q114 -8 240 -8q95 0 192 4zM1501 20q-6 -28 -13 -32q-4 -3 -28 2q-137 26 -418 6q-52 -4 -57 20q-4 28 33 43q108 43 108 82q0 15 -12 43l-123 285q-63 -4 -250 -4q-142 0 -252 8l-98 -240q-14 -36 -14 -63 q0 -57 61 -82q47 -20 70 -35t22 -26q-1 -33 -63 -27q-183 20 -348 -12q-41 -9 -47 30q-2 13 14.5 27t50.5 29q75 32 125 143q198 429 252 556q143 331 195 521q9 31 79 58q8 3 18.5 -11.5t24.5 -46.5q200 -485 484 -1112q43 -94 145 -125q23 -7 33 -16t8 -21z" />
<glyph unicode="B" horiz-adv-x="1313" d="M971 348q0 166 -111 250q-94 72 -248 72q-87 0 -145 -11v-495q0 -96 199 -96q305 0 305 280zM872 991q0 131 -66 189.5t-212 58.5q-116 0 -125 -34q-2 -10 -2 -21v-434h88q167 0 242 56.5t75 184.5zM1176 371q0 -192 -149 -290q-137 -89 -380 -89q-27 0 -129 6 q-100 6 -164 6q-102 0 -161 -12q-37 -7 -43 20q-6 24 43 45q50 20 73 43q25 28 25 84v938q0 94 -111 117q-55 10 -55 35q0 30 15 36q9 4 46 -1q44 -6 144 -6q55 0 178 3q124 3 154 3q187 0 293 -70q120 -78 120 -231q0 -203 -248 -283q-29 -9 2 -14q347 -60 347 -340z" />
<glyph unicode="C" horiz-adv-x="1530" d="M1393 326q-14 -134 -43 -215q-20 -53 -154 -95q-146 -45 -336 -45q-315 0 -523 187q-212 191 -212 487q0 303 219 504q212 194 510 194q212 0 356 -51q129 -45 133 -84q11 -80 11 -247q0 -29 -51 -33q-39 -4 -48 24q-52 170 -142 237q-89 66 -265 66q-222 0 -362 -147 q-152 -161 -152 -438t160 -446q156 -167 399 -167q157 0 249 68q86 64 142 213q16 43 72 31q40 -9 37 -43z" />
<glyph unicode="D" horiz-adv-x="1647" d="M1313 655q0 580 -596 580h-140q-110 -11 -110 -61v-928q0 -98 52 -131q53 -33 208 -33q586 0 586 573zM1522 682q0 -348 -230 -528q-214 -166 -598 -166q-32 0 -145 6t-174 6q-93 0 -182 -8q-43 -3 -43 35q0 26 43 30q98 11 98 107v958q0 54 -22 73q-17 14 -79 28 q-54 11 -62 17q-12 8 -13 30q-3 24 21 31q2 1 44 4q222 14 570 14q346 0 555 -166q217 -172 217 -471z" />
<glyph unicode="E" horiz-adv-x="1266" d="M1147 250q-28 -115 -37 -240q-1 -19 -61 -16q-166 8 -398 8q-275 0 -458 -10q-43 -1 -43 35q0 26 43 30q62 8 77 23q21 20 21 84v921q0 92 -17 117q-16 24 -94 49q-40 13 -30 49q4 19 16 21q11 3 53 -4q61 -10 334 -10q269 0 463 12q65 5 65 -9q0 -4 -2 -10 q-21 -98 -18 -225q1 -31 -29 -31q-28 0 -39 27q-28 70 -49 95q-31 37 -92 48q-48 9 -338 9q-33 0 -42 -11q-5 -7 -5 -30v-418q0 -25 29 -25q101 2 264 13q29 1 44 29q11 21 23 83q9 43 47 31q33 -6 29 -31q-29 -136 -18 -354q2 -24 -33 -29q-30 -5 -35 33q-10 76 -26 101 q-17 26 -58 30q-79 10 -248 10q-18 0 -18 -14v-436q0 -93 108 -114q30 -5 187 -5q250 0 311 174q15 40 49 27q33 -8 25 -37z" />
<glyph unicode="F" horiz-adv-x="1155" d="M1059 1300q-17 -68 -21 -225q0 -31 -28 -31t-39 27q-30 73 -57 102q-30 33 -85 41q-57 9 -284 9q-51 0 -68 -11q-10 -7 -10 -30v-453q0 -22 29 -22q170 6 258 12q33 3 44 21q11 16 23 91q6 40 47 31q33 -7 29 -31q-29 -137 -18 -354q1 -13 -7.5 -19.5t-25.5 -8.5 q-28 -1 -35 30q-26 125 -97 133q-70 9 -229 9q-18 0 -18 -13v-450q0 -50 37 -68q32 -17 125 -27q49 -6 43 -43q-6 -33 -88 -26q-234 19 -391 -2q-43 -6 -43 35q0 26 43 30q98 11 98 172v856q0 64 -24 101q-25 38 -87 65q-40 18 -30 49q4 19 16 21q11 3 53 -4q60 -10 297 -10 q276 0 477 12q67 4 67 -11q0 -5 -1 -8z" />
<glyph unicode="G" horiz-adv-x="1640" d="M1563 596q0 -31 -47 -39q-71 -11 -77 -14q-36 -15 -36 -58v-313q0 -59 -154 -126q-173 -75 -389 -75q-315 0 -523 187q-212 191 -212 487q0 303 219 504q212 194 510 194q230 0 389 -55q119 -41 123 -80q10 -73 10 -225q0 -33 -41 -35q-48 -2 -59 27q-56 149 -155 214 q-101 66 -273 66q-240 0 -375 -147q-139 -152 -139 -438q0 -276 160 -443q155 -164 399 -164q125 0 233 45q103 43 103 87v208q0 74 -30 107q-26 30 -103 53q-57 17 -54 41q4 27 13.5 32t48.5 1q211 -27 414 -4q7 1 18 1q27 0 27 -38z" />
<glyph unicode="H" horiz-adv-x="1763" d="M1657 27q0 -27 -6.5 -32.5t-36.5 -2.5q-200 17 -395 8q-39 -2 -49.5 4.5t-10.5 30.5q0 31 53 39q84 10 84 90v393q0 44 -10.5 58t-46.5 14h-707q-44 0 -55 -11q-10 -10 -10 -57v-397q0 -57 125 -90q55 -15 55 -39q0 -25 -9.5 -31t-49.5 -4q-195 9 -395 -8 q-30 -3 -36.5 2.5t-6.5 32.5q0 26 43 30q98 11 98 107v960q0 93 -111 117q-42 9 -48 13q-7 4 -7 22q0 11 2 19q6 19 59 16q254 -13 408 0q28 2 36.5 -4.5t8.5 -30.5q0 -18 -45 -29q-80 -17 -96 -27q-31 -19 -31 -81v-338q0 -70 68 -70h696q41 0 51 9q14 14 14 65v344 q0 54 -28 72q-16 11 -84 24q-56 11 -56 35q0 28 10.5 34.5t51.5 2.5q114 -11 228 -5l167 9q28 2 35.5 -4t7.5 -33t-43 -31q-110 -12 -110 -104v-985q0 -49 35 -72q30 -19 104 -35q43 -9 43 -30z" />
<glyph unicode="I" horiz-adv-x="801" d="M662 1294q0 -24 -54 -41q-121 -36 -121 -94v-973q0 -94 111 -114q55 -10 55 -39q0 -25 -9.5 -30.5t-51.5 -4.5q-251 11 -408 0q-37 -3 -43 14q-2 10 -2 21q0 19 45 30q83 19 97 27q32 20 32 82v981q0 83 -112 102q-47 8 -47 29q0 29 7.5 35.5t35.5 3.5q197 -21 403 4 q39 4 46 3q16 -4 16 -36z" />
<glyph unicode="J" horiz-adv-x="778" d="M643 1294q2 -13 -10 -23.5t-37 -17.5q-64 -18 -85 -33q-28 -21 -28 -67v-1055q0 -227 -127 -351q-115 -112 -301 -112q-122 0 -192 43q-21 14 -21 36q0 24 19 63q29 59 61 59q20 0 80 -39q80 -51 143 -51q89 0 124 56q38 62 38 237v1124q0 44 -25 60q-20 13 -94 32 q-43 12 -41 39q3 31 46 27q219 -20 403 8q28 4 35.5 -2t11.5 -33z" />
<glyph unicode="K" horiz-adv-x="1468" d="M1409 35q0 -24 -6.5 -30t-32.5 -5q-262 11 -412 -10q-37 -4 -43 16q-6 24 41 45q28 12 28 47q0 34 -32 68q-120 124 -481 469v-471q0 -57 119 -90q53 -15 53 -39q0 -25 -9 -30.5t-46 -4.5q-173 9 -391 -8q-41 -3 -41 35q0 25 41 30q94 10 94 107v960q0 93 -105 117 q-39 9 -45 13q-8 5 -8 22q0 25 9.5 31t50.5 4q251 -13 399 0q43 4 43 -35q0 -19 -43 -29q-75 -16 -92 -28q-29 -20 -29 -80v-437l455 392q51 45 51 85q0 41 -55 60q-32 11 -34 13q-14 8 -11 30q5 23 12 27q12 5 47 -2q199 -20 356 -4q25 2 32 -3t11 -28q4 -20 -4.5 -27 t-44.5 -18q-91 -26 -237 -146l-445 -370l574 -535q89 -80 186 -108q45 -12 45 -33z" />
<glyph unicode="L" horiz-adv-x="1192" d="M1124 250q-34 -126 -34 -240q0 -19 -64 -16q-168 8 -391 8q-281 0 -442 -10q-29 -1 -36 5t-7 30q0 26 43 30q98 11 98 105v923q0 70 -19 104q-22 39 -88 62q-39 13 -34 45q3 22 13 26q9 4 52 -1q143 -16 348 2q38 3 41 2q20 -3 23 -27q3 -27 -13 -37q-6 -4 -41 -12 q-70 -16 -88 -37q-18 -20 -18 -86v-895q0 -85 56 -115q54 -30 206 -30q143 0 210 36q68 37 112 138q16 40 49 27q32 -8 24 -37z" />
<glyph unicode="M" horiz-adv-x="1978" d="M1860 33q0 -25 -10.5 -30.5t-53.5 -4.5q-248 11 -405 0q-45 -3 -45 35q0 21 45 30q89 20 107 33q23 17 20 76l-35 854q-2 26 -14 26q-10 0 -19 -18l-250 -509q-151 -313 -205 -457l-15 -40l-10 -27l-3 -8q-11 -18 -29 -24q-10 -3 -17 -3q-19 0 -36 59q-62 223 -434 1003 q-11 23 -24 23q-16 0 -17 -31q-13 -294 -33 -791q-6 -132 133 -157q55 -10 55 -39q0 -25 -10.5 -30.5t-52.5 -4.5q-217 10 -357 0q-45 -3 -45 35q0 21 45 30q79 16 105 53q19 28 22 101l35 885q3 57 -23 89q-22 27 -89 58q-46 22 -45 47q3 27 43 21q149 -22 268 -8 q44 5 60 -2t28 -35l418 -957q9 -20 14 -20t18 27l447 927q26 51 63 51q93 0 260 27q36 6 47 4q17 -5 17 -37q0 -24 -53 -41q-62 -20 -93 -43t-30 -51l37 -973q1 -58 29 -82q23 -22 81 -32q56 -11 56 -39z" />
<glyph unicode="N" horiz-adv-x="1743" d="M1649 1296q0 -24 -54 -41q-120 -35 -120 -139v-719q0 -227 6 -366q2 -53 -25 -60q-45 -11 -76 47q-49 93 -392 468l-554 581q-9 9 -18 5q-10 -4 -10 -23v-820q0 -132 133 -157q55 -10 55 -39q0 -38 -62 -35q-238 10 -370 0q-43 -3 -43 35q0 20 43 30q78 18 103 49 q26 32 26 105v885q0 58 -24 89q-22 27 -89 58q-49 22 -47 47q3 27 45 21q133 -18 225 -8q49 4 88 -37l838 -893q19 -19 23 -19q8 0 8 27v723q0 128 -133 150q-47 8 -47 28q0 41 43 37q166 -18 366 4q33 4 45 1q17 -5 17 -34z" />
<glyph unicode="O" horiz-adv-x="1694" d="M1366 625q0 291 -159 460q-153 162 -404 162q-209 0 -342 -154q-133 -152 -133 -399q0 -294 155 -464q152 -164 410 -164q209 0 341 154t132 405zM1569 659q0 -289 -214 -490q-210 -198 -505 -198q-310 0 -515 186q-210 192 -210 496q0 295 213 494q209 196 512 196 q307 0 512 -191q207 -194 207 -493z" />
<glyph unicode="P" horiz-adv-x="1223" d="M936 928q0 175 -82 245q-76 66 -260 66q-76 0 -101 -21q-26 -20 -26 -88v-479q0 -28 133 -28q156 0 245 79q91 79 91 226zM1130 950q0 -190 -155 -300q-148 -103 -385 -103q-19 0 -64 3q-44 3 -49 3q-10 0 -10 -31v-358q0 -48 19 -61q20 -14 106 -29q55 -10 55 -39 q0 -25 -9.5 -31t-49.5 -4q-189 8 -395 -8q-43 -3 -43 35q0 26 43 30q98 11 98 107v958q0 94 -111 117q-55 10 -55 35q0 31 15 37q10 4 46 -2q46 -9 133 -9q57 0 158 4q128 5 185 5q214 0 338 -90q130 -94 130 -269z" />
<glyph unicode="Q" horiz-adv-x="1694" d="M1366 625q0 291 -159 460q-153 162 -404 162q-209 0 -342 -154q-133 -152 -133 -399q0 -294 155 -464q152 -164 410 -164q209 0 341 154t132 405zM2220 -258q6 -39 -14 -45q-219 -62 -457 -62q-242 0 -459 83q-237 90 -375 255q-6 0 -31.5 -1t-33.5 -1q-310 0 -515 186 q-210 192 -210 496q0 295 213 494q209 196 512 196q307 0 512 -191q207 -194 207 -493q0 -212 -123 -386q-118 -167 -313 -246q119 -144 303 -225q174 -76 364 -76t389 38q22 4 31 -22z" />
<glyph unicode="R" horiz-adv-x="1343" d="M913 965q0 148 -76 211q-77 63 -243 63q-76 0 -101 -21q-26 -20 -26 -88v-471q240 7 348 85q98 71 98 221zM1315 -2q2 -23 -39 -23q-358 0 -678 615q-123 -6 -131 -6v-420q0 -46 23 -63q22 -15 102 -27q55 -9 55 -39q0 -25 -9.5 -31t-49.5 -4q-189 8 -395 -8 q-43 -3 -43 35q0 26 43 30q98 11 98 107v958q0 94 -111 117q-55 10 -55 35q0 37 37 37q6 0 24 -2q40 -6 125 -6q29 0 141 3t210 3q200 0 316 -75q130 -82 130 -245q0 -277 -320 -366q101 -230 240 -398q141 -170 254 -188q32 -5 33 -39z" />
<glyph unicode="S" horiz-adv-x="1190" d="M1030 348q0 -169 -124 -271q-128 -106 -353 -106q-295 0 -346 109q-29 60 -62 168q-14 47 19 61q41 18 63 -16q86 -127 171 -179q82 -51 194 -51q278 0 278 222q0 87 -61 148q-56 55 -244 157q-235 127 -308 198q-91 88 -91 220q0 139 116 237q118 98 298 98 q126 0 249 -32q93 -26 105 -64q27 -87 33 -200q3 -43 -29 -48q-39 -6 -55 27q-62 125 -141 176q-74 47 -191 47q-106 0 -166.5 -49.5t-60.5 -138.5q0 -83 60 -145q58 -58 210 -134q240 -121 325 -200q111 -100 111 -234z" />
<glyph unicode="T" horiz-adv-x="1481" d="M1397 997q-1 -14 -2 -19.5t-6 -9t-17 -5.5q-37 -7 -49 28q-43 133 -102 177q-82 61 -287 61q-84 0 -91 -18q-3 -6 -3 -17v-997q0 -65 30 -90q31 -27 119 -46q41 -10 43 -11q14 -10 10 -38q-3 -24 -22 -25l-41 3q-259 24 -436 2q-41 -5 -53 0q-8 4 -13 24q-6 33 35 43 q87 23 116 53q34 34 34 113v969q0 30 -36 34q-3 1 -59 1q-190 0 -280 -66q-69 -51 -121 -180q-17 -41 -47 -27q-34 7 -25 37q35 110 35 305q0 23 61 19q224 -14 478 -14q492 0 643 20q55 7 61 -18q28 -138 25 -308z" />
<glyph unicode="U" horiz-adv-x="1673" d="M1589 1282q0 -20 -45 -31q-78 -18 -99 -36q-28 -25 -28 -93v-573q0 -275 -143 -424q-147 -154 -426 -154q-590 0 -590 555v600q0 96 -111 115q-38 7 -46.5 13t-8.5 24q0 32 15 36q6 3 47 1q268 -13 411 0q30 3 36.5 -3t6.5 -34q0 -21 -43 -31q-82 -18 -97 -26 q-32 -20 -32 -82v-578q0 -256 106 -374q107 -119 341 -119q403 0 403 464v576q0 67 -35 99q-29 26 -98 38q-55 10 -55 37q0 32 16 36q10 2 47 1q278 -11 383 0q39 4 44 -16q1 -5 1 -21z" />
<glyph unicode="V" horiz-adv-x="1663" d="M1583 1290q0 -22 -11 -31q-10 -8 -54 -22q-53 -17 -117 -137q-247 -462 -496 -1077q-18 -43 -74 -58l-6 -2q-23 0 -39 60q-34 129 -199 484q-174 374 -317 628q-52 94 -141 112q-49 10 -49 29q0 45 43 41q183 -20 428 18q35 6 45 4q16 -4 16 -34q0 -23 -51 -41 q-100 -37 -100 -78q0 -17 12 -41q97 -190 391 -869q10 -22 19 -22q8 0 18 22l369 826q10 23 10 44q0 63 -121 105q-44 16 -43 47q3 34 66 27q197 -24 356 -4q45 6 45 -31z" />
<glyph unicode="W" horiz-adv-x="2294" d="M2212 1274q0 -34 -64 -53q-68 -21 -116 -138l-418 -1060q-16 -42 -74 -58q-4 -2 -7 -2q-28 0 -40 60q-47 222 -334 868l-332 -868q-16 -45 -71 -58l-8 -2q-28 0 -39 60q-37 197 -439 1095q-41 93 -141 115q-49 10 -49 29q0 42 43 38q155 -14 387 21q38 6 49 1 q9 -4 12 -30q5 -20 -49 -47q-64 -31 -64 -73q0 -18 9 -42l319 -843q7 -19 19 -19q11 0 18 19l277 737l-45 94q-36 75 -127 117q-23 10 -34 20.5t-9 20.5q5 45 45 39q177 -28 397 -6q40 4 49.5 -1.5t9.5 -31.5q0 -24 -51 -41q-98 -32 -98 -65q0 -14 10 -40l322 -843 q8 -20 20 -20q11 0 19 20l299 798q8 21 8 43q0 68 -119 109q-45 15 -43 45q1 22 11 27q11 5 55 0q184 -22 350 -4q43 4 43 -31z" />
<glyph unicode="X" horiz-adv-x="1589" d="M1481 33q-3 -43 -43 -37q-182 29 -412 2q-35 -3 -41 -1q-15 6 -14 34q1 25 50 41t49 58q0 23 -17 46l-287 391q-206 -243 -266 -346q-26 -44 -26 -77q0 -50 61 -72q42 -16 40 -47q-3 -34 -63 -27q-188 23 -352 4q-27 -3 -34 2t-7 29q0 33 59 53q96 30 182 137l355 418 l-174 248q-102 143 -181 235q-73 86 -186 113q-47 11 -47 29q0 42 41 39q174 -16 412 20q30 5 43 3q16 -4 16 -34q0 -25 -49 -43q-55 -21 -55 -54q0 -23 28 -62l254 -365q208 250 250 332q22 43 22 77q0 51 -55 72q-45 18 -43 47q3 35 62 27q195 -25 354 -4q43 6 43 -31 q0 -32 -66 -57q-103 -40 -178 -133l-334 -406q211 -310 383 -506q89 -100 181 -125q46 -12 45 -30z" />
<glyph unicode="Y" horiz-adv-x="1575" d="M1516 1290q0 -34 -64 -53q-75 -23 -162 -137l-218 -286q-99 -135 -177 -263v-354q0 -71 27 -97q22 -20 102 -39q30 -7 43.5 -19t9.5 -30q-5 -24 -24 -25l-41 3q-193 17 -391 2q-60 -10 -66 24q-6 32 35 43q83 23 106 53q25 31 25 113v273q-139 270 -451 637 q-82 96 -164 112q-49 10 -49 29q0 45 43 41q182 -23 441 18q35 6 45 4q16 -4 16 -34q0 -21 -51 -41q-87 -33 -87 -71q0 -19 21 -48q118 -157 332 -488q12 -18 19 -18q8 0 20 18l150 216l159 229q26 38 26 66q0 53 -91 83q-50 17 -45 47q4 34 67 27q188 -23 351 -4 q43 6 43 -31z" />
<glyph unicode="Z" horiz-adv-x="1399" d="M1270 309q4 -181 -29 -307q-6 -22 -61 -18q-212 18 -482 18q-397 0 -520 -10q-56 -5 -67 14q-11 24 18 62q486 622 823 1114q13 19 13 25q0 16 -88 16h-244q-194 0 -278 -57q-66 -44 -122 -179q-16 -39 -49 -26q-32 7 -24 36q35 142 35 306q0 23 63 18q222 -14 500 -14 q283 0 430 10q52 3 59 -12q9 -19 -18 -54q-449 -568 -807 -1085q-18 -26 -18 -40q0 -24 55 -28q127 -10 344 -10q213 0 288 48q63 40 107 179q12 38 47 29q23 -6 25 -35z" />
<glyph unicode="[" horiz-adv-x="840" d="M782 -309q-2 -16 -5 -20q-7 -11 -42 -7q-58 7 -254 13q-194 5 -229 4q-46 -1 -59 7q-18 12 -15 52q17 252 17 842q0 593 -17 843q-3 41 15 52q14 9 59 8q54 -1 229 3q196 6 254 13q46 5 47 -26q3 -34 -28 -37q-207 -20 -338 -43q-48 -9 -62 -38q-8 -17 -10 -50 q-4 -121 -4 -723q0 -545 4 -725q2 -42 17 -61.5t55 -26.5q149 -26 338 -43q31 -3 28 -37z" />
<glyph unicode="\" horiz-adv-x="1008" d="M121 1487l938 -1780q3 -7 3 -12q0 -14 -34 -33q-43 -25 -55 -2l-938 1778q-11 26 32 48t54 1z" />
<glyph unicode="]" horiz-adv-x="840" d="M662 -260q2 -39 -13 -50t-61 -9q-36 1 -230 -4q-196 -6 -254 -13q-45 -5 -47 27q-1 34 29 37q185 17 338 43q49 9 62 37q8 17 10 51q4 120 4 725q0 632 -4 723q-2 42 -17 61.5t-55 26.5q-117 21 -338 43q-30 3 -29 37q2 14 5 19q8 11 42 7q58 -7 254 -13q176 -5 230 -3 q47 1 62 -9.5t12 -50.5q-17 -275 -17 -843q0 -590 17 -842z" />
<glyph unicode="^" horiz-adv-x="1143" d="M956 825q12 -15 -6 -24q-42 -22 -61 -6q-187 157 -318 301q-119 -135 -321 -303q-21 -17 -55 8q-18 12 -7 26q213 269 328 480q14 26 55 26q44 0 56 -24q79 -155 329 -484z" />
<glyph unicode="_" horiz-adv-x="823" d="M831 -174v-121h-839v121h839z" />
<glyph unicode="`" horiz-adv-x="979" d="M676 952q11 -14 -12 -28q-33 -20 -54 -2q-140 121 -256 264q-22 34 -22 53q0 17 43 42q44 26 84 26q22 0 49 -29q13 -15 59 -126q47 -116 109 -200z" />
<glyph unicode="a" horiz-adv-x="918" d="M571 160l2 164q0 25 -12 33t-39 3q-241 -43 -241 -157q0 -115 125 -115q52 0 103 19q62 23 62 53zM881 96q0 -20 -77 -64q-76 -42 -122 -42q-39 0 -69 38t-42 38q-8 0 -95 -41t-173 -41q-81 0 -137 48q-60 52 -60 144q0 173 396 248q68 14 69 55l2 64q5 164 -145 164 q-43 0 -82 -77q-38 -77 -110 -83q-82 -7 -82 69q0 47 122 112q127 67 246 67q101 0 151.5 -48t49.5 -145l-4 -412q0 -65 55 -65q7 0 42 5t36 5q29 0 29 -39z" />
<glyph unicode="b" horiz-adv-x="1026" d="M786 360q0 137 -76 225q-72 83 -175 83q-72 0 -140 -37q-69 -37 -69 -78v-268q0 -193 213 -193q111 0 179 71q68 73 68 197zM946 449q0 -199 -138 -332q-132 -129 -314 -129q-104 0 -215 34q-107 33 -109 60q-1 10 1 161q3 169 3 246q0 42 -2 336q0 55 -0.5 125.5 t-1 108.5t-0.5 59q0 73 -22 99q-20 25 -87 38q-26 9 -26 33q0 22 39 35q53 19 139 67q65 37 82 37q31 0 31 -51q0 -4 -3 -104q-1 -63 -1 -191l2 -346q0 -49 34 -28q120 69 250 69q150 0 244 -91q94 -90 94 -236z" />
<glyph unicode="c" horiz-adv-x="874" d="M795 129q0 -38 -103 -90q-112 -57 -221 -57q-170 0 -278 96q-113 102 -113 276q0 187 130 311q127 121 312 121q111 0 195 -32q76 -30 76 -64q0 -23 -38 -70t-61 -47q-16 0 -69 43q-101 80 -158 80q-89 0 -148 -68q-61 -73 -61 -204q0 -157 88 -251q79 -85 193 -85 q111 0 211 62q9 6 24 6q21 0 21 -27z" />
<glyph unicode="d" horiz-adv-x="1069" d="M719 197v358q0 45 -78 91q-83 50 -180 50q-209 0 -209 -258q0 -138 83 -236t195 -98q52 0 120 34q69 34 69 59zM1028 98q4 -8 4 -13q0 -21 -102 -69q-117 -55 -139 -55q-19 0 -42 60q-24 61 -32 61l-4 -2l-13.5 -6.5l-22.5 -10.5l-32.5 -15l-41.5 -19q-113 -52 -173 -52 q-131 0 -229 95q-117 112 -117 317q0 171 138 295q121 109 249 109q88 0 215 -23q39 -8 39 23v342q0 58 -28 82q-14 13 -85 38q-32 11 -32 39q0 25 43 37q59 18 141 60q68 36 84 36q37 0 37 -51v-4q0 -3 -0.5 -12t-0.5 -19t-1 -29t-1 -36q-3 -100 -3 -195v-909q0 -57 51 -57 q20 0 51 6q35 6 47 -23z" />
<glyph unicode="e" horiz-adv-x="891" d="M590 569q0 54 -45 96t-109 42q-184 0 -184 -265v-24l272 82q66 20 66 69zM827 168q0 -44 -116 -107q-130 -71 -271 -71q-150 0 -254 99q-110 105 -110 280q0 198 123 318q115 112 282 112q99 0 185 -63q76 -55 102 -128q9 -25 27 -28q26 -5 26 -35q0 -41 -98 -70 l-461 -137q45 -238 244 -238q115 0 262 84q22 13 43 13q16 0 16 -29z" />
<glyph unicode="f" horiz-adv-x="725" d="M831 1364q0 -42 -38 -98t-60 -56q-27 0 -57 27q-63 45 -111 45q-190 0 -190 -266v-215q0 -49 86 -43l127 10q75 6 82 -24q2 -14 2 -29q0 -40 -20 -51q-11 -7 -62 -7h-127q-85 0 -88 -36q-1 -21 0 -435q0 -55 52 -80q40 -19 130 -26q35 -3 43 -9q8 -5 8 -32 q0 -30 -8.5 -36.5t-42.5 -4.5q-221 12 -397 -6q-46 -4 -56 0t-10 35q0 25 58 41q69 20 69 100v389q0 62 -19 85q-13 16 -50 28q-58 18 -58 57q0 27 24 34q7 1 50 3q36 2 45 16q6 10 6 54v159q0 189 156 311q148 115 366 115q90 0 90 -55z" />
<glyph unicode="g" horiz-adv-x="999" d="M807 -205q0 78 -184 103l-199 28q-28 4 -78 15q-106 -85 -106 -211q0 -142 192 -142q148 0 266 71q109 64 109 136zM649 477q0 232 -200 232q-170 0 -170 -215q0 -213 188 -213q78 0 130 55t52 141zM948 664q-11 -74 -52 -74q-2 0 -56 6q-12 2 -25 2q-14 -2 -14 -18 q0 -2 1 -16t2 -33t1 -35q0 -217 -281 -295q-166 -46 -166 -74q0 -29 123 -45l156 -21q132 -18 192 -49q97 -51 97 -157q0 -149 -171 -254q-167 -101 -386 -101q-137 0 -217 55q-80 56 -80 146q0 138 192 264q-88 36 -88 113q0 72 164 131q-236 63 -236 276q0 133 96 220 q97 88 244 88q104 0 205 -48q65 -31 166 -28l88 2q34 1 42 -9t3 -46z" />
<glyph unicode="h" horiz-adv-x="1124" d="M1106 23q0 -33 -45 -31q-246 9 -326 4q-35 -3 -44 -1q-19 4 -19 32q0 19 57 36q38 12 48 37q5 15 5 64v270q0 234 -198 234q-88 0 -165 -42q-73 -40 -73 -79v-381q0 -96 123 -109q47 -5 47 -30q0 -21 -7.5 -26.5t-39.5 -4.5q-155 6 -324 -8q-34 -3 -45 -1q-20 5 -20 31 q0 22 57 37q53 15 53 109v905q0 80 -16 115q-23 48 -92 71q-27 9 -27 33q0 17 41 35q55 25 140 73q55 31 75 31q37 0 37 -51v-4q0 -3 -0.5 -12t-0.5 -19t-1 -29t-1 -36q-3 -100 -3 -195v-342q0 -55 16 -55q-10 0 100 57q109 58 208 58q267 0 268 -295l2 -338 q0 -101 125 -113q45 -5 45 -30z" />
<glyph unicode="i" horiz-adv-x="598" d="M553 25q-5 -29 -24 -33q-3 -1 -48 2q-143 10 -293 -4q-38 -4 -48.5 3t-10.5 32q0 23 53 38q58 16 58 111v262q0 80 -16 111q-23 45 -91 67q-31 10 -31 33q0 29 45 43q85 26 149 69q52 36 64 36q40 0 39 -52q-4 -233 -4 -534q0 -65 19 -93q20 -30 80 -44q65 -15 59 -47z M442 1157q0 -45 -35 -86q-35 -39 -75 -39q-47 0 -77 28t-30 73t36 82q38 38 79 38q102 0 102 -96z" />
<glyph unicode="j" horiz-adv-x="530" d="M373 743v-3q0 -4 -0.5 -13t-0.5 -19t-1 -29t-1 -36q-3 -101 -3 -194v-500q0 -351 -297 -469q-18 -7 -32 -1q-15 6 -15 21q0 28 57 68q73 51 99 118q32 79 32 242v508q0 82 -16 114q-21 41 -86 64q-27 10 -27 31q0 33 39 45q81 25 150 70q53 35 65 35q37 0 37 -52z M406 1184q0 -44 -37 -84q-37 -39 -78 -39q-103 0 -103 98q0 45 35 85q34 40 76 40q107 0 107 -100z" />
<glyph unicode="k" horiz-adv-x="1073" d="M1055 35q0 -35 -47 -37q-79 -2 -183 -10q-57 -11 -80 14q-159 172 -268 356q-9 16 -23 16q-17 0 -59 -30q-47 -26 -47 -74q0 -12 2 -98q1 -64 32 -84q20 -13 97 -22q47 -5 47 -35q0 -24 -7.5 -29t-39.5 -2q-103 9 -338 -10q-60 -5 -65 15q-2 10 -2 20q0 31 61 47 q55 13 55 129v874q0 83 -16 114q-23 42 -92 64q-33 11 -33 31q0 28 47 45q76 26 143 69q55 36 68 36q41 0 41 -52v-4v-7v-10.5v-14t-0.5 -17.5t-0.5 -21.5v-24.5q-1 -49 -1 -196l2 -626q0 -26 14 -26t46 26q76 60 204 170q24 25 24 40q0 27 -81 38q-35 5 -33 39q3 35 35 30 q65 -9 210 -11q32 -1 95.5 -1h95.5q31 0 31 -37q0 -34 -49 -37q-76 -3 -145 -35q-96 -44 -203 -151q-8 -6 -8 -15q0 -15 34 -67q122 -187 236 -287q70 -61 133 -61q47 0 57 -7q11 -6 11 -34z" />
<glyph unicode="l" horiz-adv-x="584" d="M553 29q0 -39 -45 -35q-132 13 -342 -4q-41 -4 -50.5 2t-9.5 33q0 23 54 40q55 16 55 99v905q0 81 -24 119q-23 38 -82 59q-31 10 -31 31q0 30 45 45q66 22 141 68q58 36 76 36q37 0 37 -51q0 -8 -4 -100q-2 -66 -2 -195l4 -893q0 -61 30 -89t103 -36q45 -6 45 -34z" />
<glyph unicode="m" horiz-adv-x="1731" d="M1714 27q0 -17 -7.5 -24.5t-23.5 -6.5q-204 15 -380 0q-39 -3 -39 35q0 29 53 32q67 3 67 109v266q0 224 -182 224q-95 0 -176 -35q-74 -32 -74 -62l-4 -397q0 -62 15 -82q11 -14 49 -20q88 -15 88 -37q0 -18 -5 -26q-6 -11 -36 -9q-101 4 -332 -4q-31 -1 -40 5t-9 28 q0 26 57 32q62 8 62 113v272q0 109 -50 170q-43 54 -112 54q-100 0 -180 -41t-80 -86v-365q0 -62 32 -86q29 -22 105 -27q41 -2 41 -28q0 -29 -33 -29q-245 0 -362 -14q-38 -5 -49 0q-9 4 -9 24q0 25 74 43q45 12 45 117v307q0 117 -63 135q-55 16 -65 22q-11 8 -11 23 q0 17 104 76q110 62 135 62q20 0 35 -61q14 -60 23 -60q12 0 61 31q58 37 112 58q84 32 169 32q69 0 122 -30q35 -19 65 -55l24 -30l52 30q67 38 119 55q85 30 165 30q274 0 274 -301v-324q0 -57 27 -81q26 -21 94 -34q53 -11 53 -30z" />
<glyph unicode="n" horiz-adv-x="1145" d="M1135 18q0 -31 -45 -28q-223 11 -326 4q-57 -5 -62 14q-2 8 -2 17q0 20 58 36q53 15 53 103v266q0 229 -199 229q-88 0 -165 -42q-72 -41 -72 -85v-366q0 -94 123 -105q47 -5 47 -30q0 -26 -13 -30q-9 -2 -34 -1q-160 6 -324 -16q-36 -4 -45 -3q-20 5 -20 31q0 24 57 41 q53 17 53 133v303q0 76 -20 98q-13 15 -93 42q-20 8 -20 28t41 35q57 22 123 67q56 38 72 38q27 0 36 -62q9 -61 25 -61q-3 0 9 7q20 12 93 51q110 59 217 59q260 0 261 -295l2 -322q0 -62 32 -89q26 -21 93 -34q45 -9 45 -33z" />
<glyph unicode="o" horiz-adv-x="1018" d="M762 342q0 158 -76 255q-74 95 -188 95q-106 0 -173 -75q-67 -73 -67 -181q0 -172 78 -268q72 -88 188 -88q110 0 174 73t64 189zM938 403q0 -173 -129 -295q-129 -120 -320 -120q-192 0 -302 106q-107 104 -107 275q0 177 135 298q131 117 313 117q194 0 304 -105 q106 -102 106 -276z" />
<glyph unicode="p" horiz-adv-x="1055" d="M793 350q0 162 -81 254q-66 76 -155 76q-69 0 -132 -48q-83 -62 -83 -173v-283q0 -27 76 -57q82 -33 178 -33q197 0 197 264zM963 430q0 -188 -126 -318q-124 -130 -292 -130q-101 0 -195 36q-7 3 -9 -25q-1 -10 -1 -24v-301q0 -73 119 -94q55 -10 69 -18q15 -9 15 -29 q0 -34 -45 -31q-212 14 -369 -10q-32 -5 -40.5 0t-8.5 27q0 17 57 41q49 19 49 96v882q0 107 -59 134q-70 31 -70 51q0 22 41 33q56 14 109 46q47 27 57 27q30 0 49 -55q29 -80 37 -80q1 0 86 47q92 51 180 51q143 0 236 -81q111 -95 111 -275z" />
<glyph unicode="q" horiz-adv-x="1049" d="M735 217v342q0 42 -71 93q-81 57 -179 57q-95 0 -158 -65q-73 -76 -73 -222q0 -143 85 -225t232 -82q66 0 115 31t49 71zM1010 -473q0 -24 -23 -29q-1 0 -6.5 0.5t-16 1t-22.5 0.5q-81 5 -344 -4q-33 -1 -42 4.5t-9 26.5q0 27 51 31q137 12 137 112v322q0 84 -16 84 q-10 0 -87 -43t-159 -43q-167 0 -277 101q-112 105 -112 269q0 205 137 328q125 113 303 113q101 0 185 -22l78 -21h-1q16 0 46 35q32 36 40 36q9 0 24 -12q17 -12 15 -20q-22 -221 -22 -443l2 -649q0 -85 57 -121q62 -38 62 -57z" />
<glyph unicode="r" horiz-adv-x="766" d="M715 709q0 -121 -70 -121q-9 0 -73 14t-91 14q-112 0 -112 -151v-295q0 -52 36 -74q22 -14 105 -35q45 -12 45 -34q0 -27 -7.5 -32.5t-37.5 -2.5q-222 23 -348 2q-40 -8 -51 0q-9 6 -9 35q0 27 55 43q56 17 56 96v321q0 62 -17 85q-15 21 -90 59l-6 3q-20 11 -20 28 q0 20 41 34q68 24 126 68q46 37 60 37q35 0 43 -62q9 -79 21 -79q1 0 112 75q73 49 160 49q72 0 72 -77z" />
<glyph unicode="s" horiz-adv-x="811" d="M707 215q0 -106 -82 -169q-82 -62 -222 -62q-91 0 -188 20q-80 18 -94 33q-8 14 -8 137q0 54 24 55q24 3 41 -26q75 -131 242 -131q141 0 141 98q0 43 -32 72q-35 33 -136 77q-145 65 -195 114q-53 53 -53 140q0 106 83 168q78 58 206 58q83 0 148 -13q72 -14 75 -32 q7 -56 33 -162q3 -14 -28 -21q-33 -8 -44 11q-80 129 -200 129q-137 0 -137 -88q0 -50 37 -78q32 -25 155 -78q127 -55 174 -99q60 -57 60 -153z" />
<glyph unicode="t" horiz-adv-x="690" d="M633 94q0 -48 -88 -82q-78 -30 -158 -30q-217 0 -217 231v362q0 68 -11 84q-10 16 -73 31q-16 4 -16 31q0 29 12 35q108 52 188 190q11 20 43 12q23 -8 23 -26l4 -125q0 -13 5 -20q7 -9 32 -9h223q20 0 0 -47q-22 -57 -68 -57h-151q-39 0 -48 -13q-7 -8 -7 -49v-327 q0 -125 22 -157q28 -42 135 -42q33 0 85 11q50 12 53 12q12 0 12 -15z" />
<glyph unicode="u" horiz-adv-x="1087" d="M1020 84q0 -21 -94 -61l-80 -35q-12 0 -56 45q-42 45 -59 45q-9 0 -103 -42t-165 -42q-151 0 -209 57q-64 61 -64 221v201q0 85 -17 118q-20 41 -93 64q-23 8 -23 25q0 20 39 35l147 59q51 21 74 21q37 0 35 -47l-3 -106q-3 -105 -3 -200v-120q0 -122 48 -167 q43 -40 157 -40q176 0 176 180v178q0 95 -18 124t-93 48q-22 9 -22 31t27 33q207 75 227 75q39 0 39 -45q0 1 -0.5 -20t-2.5 -81q-3 -100 -3 -196v-252q0 -71 104 -79q35 -3 35 -27z" />
<glyph unicode="v" horiz-adv-x="1090" d="M1032 737q0 -19 -63 -39q-42 -12 -70 -82q-49 -116 -171 -346q-104 -194 -159 -282q-3 -7 -13 -6q-11 2 -15 8q-211 304 -363 624q-32 69 -63 76q-58 22 -58 41q0 39 39 35q68 -8 181 -4q117 3 163 12q29 6 29 -22q0 -34 -41 -45q-78 -21 -78 -54q0 -19 10 -43 q32 -81 122 -243q89 -158 100 -158q8 0 85 152q82 166 115 260q5 12 5 22q0 39 -48 64q-47 20 -47 36q0 35 31 29q41 -8 141 -12q104 -5 131 -2q37 7 37 -21z" />
<glyph unicode="w" horiz-adv-x="1567" d="M1509 735q0 -17 -69 -37q-45 -12 -76 -82q-182 -404 -322 -645q-3 -6 -15 -5q-11 2 -15 7q-23 35 -123 251q-91 198 -98 198q-9 0 -107 -191q-103 -203 -129 -243q-3 -8 -14 -6q-11 0 -17 8q-74 114 -336 624q-30 60 -67 76q-64 28 -64 41q0 39 43 35q196 -20 338 8 q33 6 33 -22q0 -40 -45 -50q-59 -14 -59 -44q0 -17 14 -56q37 -95 108 -236q72 -143 84 -143q8 0 85 149t77 165q0 34 -26 84q-34 66 -72 79q-66 22 -66 45q0 39 45 33q148 -21 326 8q33 6 33 -20q0 -38 -49 -47q-58 -10 -58 -59q0 -24 13 -54q155 -377 178 -377q9 0 80 147 q76 156 106 253q2 6 2 11q0 45 -67 67q-52 18 -52 38q0 35 33 27q45 -10 162 -15q104 -4 145 1t41 -23z" />
<glyph unicode="x" horiz-adv-x="1106" d="M1040 31q0 -24 -13 -30q-7 -3 -38 -3q-221 0 -272 -8q-14 -2 -20 -2q-39 0 -39 27q0 9 8 22q27 38 4 76q-103 166 -127 166q-30 0 -156 -185q-6 -6 -6 -14q0 -29 53 -41q40 -9 33 -37q-5 -21 -24 -22q-22 -2 -93 10q-54 8 -213 8q-31 0 -38 3q-13 6 -13 30q0 22 13 28.5 t61 6.5q59 0 135 75q52 50 122 131q66 78 66 93q0 23 -194 256q-57 68 -109 71q-42 3 -53 8.5t-12 26.5q-2 27 8 34t43 1q82 -16 233 10q66 18 68 -14q0 -16 -5 -64q-3 -44 7 -63q21 -41 57 -88q37 -49 45 -49q10 0 52 50q40 46 65 87q18 30 18 55q0 27 -24 27q-29 0 -29 30 q0 27 52 21q47 -5 83 -5t96 6q51 5 74 3q50 -5 50 -33q0 -20 -9 -25.5t-51 -11.5q-82 -10 -147 -84q-170 -190 -170 -202q0 -18 174 -226q88 -106 170 -120l20.5 -3.5t22.5 -3.5q22 -6 22 -28z" />
<glyph unicode="y" horiz-adv-x="1100" d="M1036 748q0 -27 -44 -47q-43 -19 -66 -76q-110 -264 -264 -559l-103 -197q-61 -123 -199 -342q-44 -71 -120 -57q-68 11 -111 38t-39 52q9 43 60 47q83 7 115 16q32 10 57 41q52 67 125 197q69 121 69 137q0 9 -125 241l-205 379q-35 64 -71 74q-64 16 -64 43q0 38 41 35 q212 -16 387 12q31 4 31 -20q0 -35 -49 -47q-74 -18 -74 -65q0 -10 4 -19q48 -112 132 -277q78 -153 85 -153q9 0 66 125q64 142 123 307q1 3 1 9q0 48 -48 67q-56 21 -56 36q0 34 35 29q141 -22 266 -4q29 4 35 0t6 -22z" />
<glyph unicode="z" horiz-adv-x="967" d="M895 158q-12 -12 -94 -224q-10 -25 -43 -18q-31 6 -23 41q3 14 -9 22.5t-40 12.5q-109 14 -565 14q-27 0 -27 38q0 8 4 11l539 557q12 14 12 20q0 7 -20 7q-11 0 -273 -6q-96 -1 -143 -55q-49 -55 -74 -48q-31 10 -16 35q13 19 98 236q9 24 35 24q31 0 41 -22 q10 -24 86 -29q138 -7 448 -10q12 0 23.5 -15t11.5 -28q0 -4 -2 -6l-540 -547q-14 -14 -14 -21q1 -10 32 -10q254 0 332 2q88 3 139 28t55 25q8 0 17 -4q29 -9 10 -30z" />
<glyph unicode="{" horiz-adv-x="903" d="M831 -334q-7 -27 -53 -20q-473 84 -473 352q0 56 37 174q41 135 41 176q0 107 -89 152q-58 29 -185 41q-19 1 -19 32q0 32 19 33q129 12 185 40q89 45 89 153q0 41 -41 176q-37 118 -37 174q0 268 473 352q46 7 53 -20q12 -41 -20 -49q-191 -47 -263 -99 q-71 -53 -71 -151q0 -40 35 -162q37 -126 37 -201q0 -101 -57 -160q-47 -50 -150 -86q102 -34 150 -85q57 -60 57 -160q0 -75 -37 -201q-35 -122 -35 -162q0 -98 71 -151q72 -52 263 -99q32 -8 20 -49z" />
<glyph unicode="|" horiz-adv-x="545" d="M322 1552v-1882q0 -24 -50 -24q-49 0 -49 24v1882q3 25 51 25q16 0 32 -2q16 -4 16 -23z" />
<glyph unicode="}" horiz-adv-x="903" d="M813 573q0 -31 -18 -32q-128 -12 -185 -41q-90 -45 -90 -152q0 -41 41 -176q37 -118 37 -174q0 -268 -473 -352q-46 -7 -53 20q-12 41 20 49q192 47 262 99q72 52 72 151q0 40 -35 162q-37 126 -37 201q0 100 57 160q48 51 150 85q-103 36 -150 86q-57 59 -57 160 q0 75 37 201q35 122 35 162q0 98 -72 151q-70 52 -262 99q-32 8 -20 49q7 27 53 20q473 -84 473 -352q0 -56 -37 -174q-41 -135 -41 -176q0 -108 90 -153q54 -28 185 -40q18 -2 18 -33z" />
<glyph unicode="~" horiz-adv-x="979" d="M838 647q-70 -94 -107 -137q-51 -59 -104 -59q-31 0 -148 34q-120 35 -131 35q-24 0 -53 -18l-94 -82q-13 -12 -45 14q-26 20 -11 31q61 86 105 137q53 62 104 62q29 0 149 -36t130 -36q28 0 53 20l96 82q12 11 43 -16q27 -17 13 -31z" />
<glyph unicode="&#x2013;" horiz-adv-x="1012" d="M842 500q-443 11 -664 -11q-96 -9 -96 21q0 33 23 68q25 40 57 38q182 -9 696 2q66 2 66 -21q1 -32 -25 -66q-26 -32 -57 -31z" />
<glyph unicode="&#x2014;" horiz-adv-x="1815" d="M1645 500q-109 3 -734 0q-670 -5 -733 -11q-96 -9 -96 21q0 33 23 68q25 40 57 38q67 -4 751 -2q532 1 748 4q66 2 66 -21q1 -32 -25 -66q-26 -32 -57 -31z" />
<glyph unicode="&#x2018;" d="M375 1294q4 -9 4 -17q0 -17 -57 -56q-99 -67 -99 -136q0 -39 56 -75q81 -54 81 -125q0 -50 -33 -82.5t-87 -32.5q-65 0 -102.5 48t-37.5 126q0 134 60 224q46 70 159 147q17 12 29 12q15 0 27 -33z" />
<glyph unicode="&#x2019;" d="M381 1163q0 -135 -60 -223q-47 -70 -159 -147q-19 -13 -28 -13q-14 0 -28 33q-3 11 -3 17q0 18 57 57q98 68 98 135q0 39 -55 76q-82 54 -82 125q0 50 33 82t88 32q65 0 102 -47.5t37 -126.5z" />
<glyph unicode="&#x201c;" horiz-adv-x="918" d="M375 1294q4 -9 4 -17q0 -17 -57 -56q-99 -67 -99 -136q0 -39 56 -75q81 -54 81 -125q0 -50 -33 -82.5t-87 -32.5q-65 0 -102.5 48t-37.5 126q0 134 60 224q46 70 159 147q17 12 29 12q15 0 27 -33zM788 1294q4 -9 4 -17q0 -17 -57 -56q-98 -68 -98 -136q0 -39 55 -75 q82 -54 82 -125q0 -50 -33 -82.5t-88 -32.5q-65 0 -102 47.5t-37 126.5q0 134 60 224q46 70 159 147q17 12 28 12q15 0 27 -33z" />
<glyph unicode="&#x201d;" horiz-adv-x="918" d="M381 1163q0 -135 -60 -223q-47 -70 -159 -147q-19 -13 -28 -13q-14 0 -28 33q-3 11 -3 17q0 18 57 57q98 68 98 135q0 39 -55 76q-82 54 -82 125q0 50 33 82t88 32q65 0 102 -47.5t37 -126.5zM795 1163q0 -135 -60 -223q-46 -69 -160 -147q-17 -13 -28 -13q-15 0 -27 33 q-4 9 -4 17q0 18 57 57q99 67 99 135q0 38 -56 76q-81 54 -81 125q0 50 33 82t87 32q65 0 102.5 -47.5t37.5 -126.5z" />
<glyph unicode="&#x2026;" horiz-adv-x="1542" d="M373 119q0 -61 -38 -105q-37 -43 -91 -43q-115 0 -115 131q0 59 40 99q41 41 93 41q111 0 111 -123zM893 119q0 -64 -33 -106t-86 -42q-125 0 -125 131q0 60 34.5 100t86.5 40q123 0 123 -123zM1411 111q0 -60 -40 -100q-39 -40 -91 -40q-111 0 -111 123q0 60 38 104 t89 44q115 0 115 -131z" />
<glyph horiz-adv-x="508" />
</font>
</defs>
</svg>
